HIERARCHY
ROOT Root
{
  OFFSET 0.0 0.0 0.0
  CHANNELS 6 Xposition Yposition Zposition Zrotation Yrotation Xrotation
  JOINT Hips
  {
    OFFSET 0.0 100.0 0.0
    CHANNELS 6 Xposition Yposition Zposition Zrotation Yrotation Xrotation
    JOINT Spine1
    {
      OFFSET -0.013727 5.003763 -0.053727
      CHANNELS 3 Zrotation Yrotation Xrotation
      JOINT Spine2
      {
        OFFSET -0.0 7.125301 -0.029825
        CHANNELS 3 Zrotation Yrotation Xrotation
        JOINT Chest
        {
          OFFSET -1e-06 7.550063 -0.815971
          CHANNELS 3 Zrotation Yrotation Xrotation
          JOINT Neck1
          {
            OFFSET -0.181677 26.311295 -0.553348
            CHANNELS 3 Zrotation Yrotation Xrotation
            JOINT Neck2
            {
              OFFSET -3e-06 7.709397 2.302585
              CHANNELS 3 Zrotation Yrotation Xrotation
              JOINT Head
              {
                OFFSET -5e-06 6.128916 1.953709
                CHANNELS 3 Zrotation Yrotation Xrotation
                JOINT HeadEnd
                {
                  OFFSET 0.003598 16.065403 -1.835379
                  CHANNELS 3 Zrotation Yrotation Xrotation
                }
                JOINT Jaw
                {
                  OFFSET 0.002637 0.475592 3.094941
                  CHANNELS 3 Zrotation Yrotation Xrotation
                }
                JOINT LeftEye
                {
                  OFFSET 3.206381 5.380205 7.586883
                  CHANNELS 3 Zrotation Yrotation Xrotation
                }
                JOINT RightEye
                {
                  OFFSET -3.22244 5.361869 7.558234
                  CHANNELS 3 Zrotation Yrotation Xrotation
                }
              }
            }
          }
          JOINT LeftShoulder
          {
            OFFSET 1.621652 23.237164 5.113413
            CHANNELS 3 Zrotation Yrotation Xrotation
            JOINT LeftArm
            {
              OFFSET 14.919846 2e-06 -5.502326
              CHANNELS 3 Zrotation Yrotation Xrotation
              JOINT LeftForeArm
              {
                OFFSET 28.739307 0.0 -0.002588
                CHANNELS 3 Zrotation Yrotation Xrotation
                JOINT LeftHand
                {
                  OFFSET 27.093981 -1e-06 0.002609
                  CHANNELS 3 Zrotation Yrotation Xrotation
                  JOINT LeftHandThumb1
                  {
                    OFFSET 2.276482 -1.392045 3.191413
                    CHANNELS 3 Zrotation Yrotation Xrotation
                    JOINT LeftHandThumb2
                    {
                      OFFSET 4.012836 -1.828127 1.641654
                      CHANNELS 3 Zrotation Yrotation Xrotation
                      JOINT LeftHandThumb3
                      {
                        OFFSET 2.798515 0.0 -3e-06
                        CHANNELS 3 Zrotation Yrotation Xrotation
                        JOINT LeftHandThumbEnd
                        {
                          OFFSET 3.180793 -4e-06 4e-06
                          CHANNELS 3 Zrotation Yrotation Xrotation
                        }
                      }
                    }
                  }
                  JOINT LeftHandIndex1
                  {
                    OFFSET 3.247555 -0.531998 2.296169
                    CHANNELS 3 Zrotation Yrotation Xrotation
                    JOINT LeftHandIndex2
                    {
                      OFFSET 6.364578 0.01206 0.1786
                      CHANNELS 3 Zrotation Yrotation Xrotation
                      JOINT LeftHandIndex3
                      {
                        OFFSET 3.662364 0.0 0.0
                        CHANNELS 3 Zrotation Yrotation Xrotation
                        JOINT LeftHandIndex4
                        {
                          OFFSET 2.329242 4e-06 4e-06
                          CHANNELS 3 Zrotation Yrotation Xrotation
                          JOINT LeftHandIndexEnd
                          {
                            OFFSET 2.759615 -0.180537 -0.113024
                            CHANNELS 3 Zrotation Yrotation Xrotation
                          }
                        }
                      }
                    }
                  }
                  JOINT LeftHandMiddle1
                  {
                    OFFSET 3.163495 0.240981 1.000332
                    CHANNELS 3 Zrotation Yrotation Xrotation
                    JOINT LeftHandMiddle2
                    {
                      OFFSET 6.19078 -0.259278 -1.002548
                      CHANNELS 3 Zrotation Yrotation Xrotation
                      JOINT LeftHandMiddle3
                      {
                        OFFSET 4.35652 -4e-06 -1e-06
                        CHANNELS 3 Zrotation Yrotation Xrotation
                        JOINT LeftHandMiddle4
                        {
                          OFFSET 2.996877 -8e-06 0.0
                          CHANNELS 3 Zrotation Yrotation Xrotation
                          JOINT LeftHandMiddleEnd
                          {
                            OFFSET 2.304287 -0.294569 -0.031741
                            CHANNELS 3 Zrotation Yrotation Xrotation
                          }
                        }
                      }
                    }
                  }
                  JOINT LeftHandRing1
                  {
                    OFFSET 2.882643 -0.053652 -0.322543
                    CHANNELS 3 Zrotation Yrotation Xrotation
                    JOINT LeftHandRing2
                    {
                      OFFSET 5.854541 -0.486202 -1.373841
                      CHANNELS 3 Zrotation Yrotation Xrotation
                      JOINT LeftHandRing3
                      {
                        OFFSET 4.350578 0.0 3e-06
                        CHANNELS 3 Zrotation Yrotation Xrotation
                        JOINT LeftHandRing4
                        {
                          OFFSET 2.651321 7e-06 2e-06
                          CHANNELS 3 Zrotation Yrotation Xrotation
                          JOINT LeftHandRingEnd
                          {
                            OFFSET 1.936105 0.077687 -7.1e-05
                            CHANNELS 3 Zrotation Yrotation Xrotation
                          }
                        }
                      }
                    }
                  }
                  JOINT LeftHandPinky1
                  {
                    OFFSET 2.8655 -0.310005 -1.600378
                    CHANNELS 3 Zrotation Yrotation Xrotation
                    JOINT LeftHandPinky2
                    {
                      OFFSET 5.087849 -1.331141 -1.77123
                      CHANNELS 3 Zrotation Yrotation Xrotation
                      JOINT LeftHandPinky3
                      {
                        OFFSET 3.070974 4e-06 0.0
                        CHANNELS 3 Zrotation Yrotation Xrotation
                        JOINT LeftHandPinky4
                        {
                          OFFSET 1.549672 0.0 1e-06
                          CHANNELS 3 Zrotation Yrotation Xrotation
                          JOINT LeftHandPinkyEnd
                          {
                            OFFSET 1.944893 -0.157802 0.057219
                            CHANNELS 3 Zrotation Yrotation Xrotation
                          }
                        }
                      }
                    }
                  }
                }
              }
            }
          }
          JOINT RightShoulder
          {
            OFFSET -1.380118 23.180309 5.214158
            CHANNELS 3 Zrotation Yrotation Xrotation
            JOINT RightArm
            {
              OFFSET -15.037196 1.2e-05 -5.545604
              CHANNELS 3 Zrotation Yrotation Xrotation
              JOINT RightForeArm
              {
                OFFSET -28.736639 2e-06 -0.002597
                CHANNELS 3 Zrotation Yrotation Xrotation
                JOINT RightHand
                {
                  OFFSET -27.133619 -0.0 0.002613
                  CHANNELS 3 Zrotation Yrotation Xrotation
                  JOINT RightHandThumb1
                  {
                    OFFSET -2.274032 -1.383988 3.163127
                    CHANNELS 3 Zrotation Yrotation Xrotation
                    JOINT RightHandThumb2
                    {
                      OFFSET -4.011429 -1.827466 1.640914
                      CHANNELS 3 Zrotation Yrotation Xrotation
                      JOINT RightHandThumb3
                      {
                        OFFSET -2.794935 -4e-06 -3e-06
                        CHANNELS 3 Zrotation Yrotation Xrotation
                        JOINT RightHandThumbEnd
                        {
                          OFFSET -3.183852 4e-06 1e-06
                          CHANNELS 3 Zrotation Yrotation Xrotation
                        }
                      }
                    }
                  }
                  JOINT RightHandIndex1
                  {
                    OFFSET -3.253266 -0.520057 2.282866
                    CHANNELS 3 Zrotation Yrotation Xrotation
                    JOINT RightHandIndex2
                    {
                      OFFSET -6.341917 0.012471 0.178266
                      CHANNELS 3 Zrotation Yrotation Xrotation
                      JOINT RightHandIndex3
                      {
                        OFFSET -3.654871 -8e-06 -0.0
                        CHANNELS 3 Zrotation Yrotation Xrotation
                        JOINT RightHandIndex4
                        {
                          OFFSET -2.327586 0.0 1e-06
                          CHANNELS 3 Zrotation Yrotation Xrotation
                          JOINT RightHandIndexEnd
                          {
                            OFFSET -2.76179 -0.180656 -0.113078
                            CHANNELS 3 Zrotation Yrotation Xrotation
                          }
                        }
                      }
                    }
                  }
                  JOINT RightHandMiddle1
                  {
                    OFFSET -3.168106 0.246593 1.00103
                    CHANNELS 3 Zrotation Yrotation Xrotation
                    JOINT RightHandMiddle2
                    {
                      OFFSET -6.180828 -0.258836 -1.000895
                      CHANNELS 3 Zrotation Yrotation Xrotation
                      JOINT RightHandMiddle3
                      {
                        OFFSET -4.348901 0.0 -0.0
                        CHANNELS 3 Zrotation Yrotation Xrotation
                        JOINT RightHandMiddle4
                        {
                          OFFSET -3.00024 -4e-06 -2e-06
                          CHANNELS 3 Zrotation Yrotation Xrotation
                          JOINT RightHandMiddleEnd
                          {
                            OFFSET -2.30252 -0.29437 -0.031706
                            CHANNELS 3 Zrotation Yrotation Xrotation
                          }
                        }
                      }
                    }
                  }
                  JOINT RightHandRing1
                  {
                    OFFSET -2.88569 -0.067952 -0.308858
                    CHANNELS 3 Zrotation Yrotation Xrotation
                    JOINT RightHandRing2
                    {
                      OFFSET -5.854198 -0.48613 -1.373731
                      CHANNELS 3 Zrotation Yrotation Xrotation
                      JOINT RightHandRing3
                      {
                        OFFSET -4.33881 -4e-06 -0.0
                        CHANNELS 3 Zrotation Yrotation Xrotation
                        JOINT RightHandRing4
                        {
                          OFFSET -2.654903 -4e-06 4e-06
                          CHANNELS 3 Zrotation Yrotation Xrotation
                          JOINT RightHandRingEnd
                          {
                            OFFSET -1.933568 0.077527 -5.2e-05
                            CHANNELS 3 Zrotation Yrotation Xrotation
                          }
                        }
                      }
                    }
                  }
                  JOINT RightHandPinky1
                  {
                    OFFSET -2.866425 -0.342796 -1.584145
                    CHANNELS 3 Zrotation Yrotation Xrotation
                    JOINT RightHandPinky2
                    {
                      OFFSET -5.091371 -1.332055 -1.772385
                      CHANNELS 3 Zrotation Yrotation Xrotation
                      JOINT RightHandPinky3
                      {
                        OFFSET -3.062664 -4e-06 1e-06
                        CHANNELS 3 Zrotation Yrotation Xrotation
                        JOINT RightHandPinky4
                        {
                          OFFSET -1.546529 4e-06 -2e-06
                          CHANNELS 3 Zrotation Yrotation Xrotation
                          JOINT RightHandPinkyEnd
                          {
                            OFFSET -1.945119 -0.157718 0.057211
                            CHANNELS 3 Zrotation Yrotation Xrotation
                          }
                        }
                      }
                    }
                  }
                }
              }
            }
          }
        }
      }
    }
    JOINT LeftLeg
    {
      OFFSET 10.043214 -8.434526 2.595655
      CHANNELS 3 Zrotation Yrotation Xrotation
      JOINT LeftShin
      {
        OFFSET -1e-06 -43.221752 -0.802913
        CHANNELS 3 Zrotation Yrotation Xrotation
        JOINT LeftFoot
        {
          OFFSET 1e-06 -42.155094 -3.481523
          CHANNELS 3 Zrotation Yrotation Xrotation
          JOINT LeftToeBase
          {
            OFFSET 0.0 -5.059472 13.231529
            CHANNELS 3 Zrotation Yrotation Xrotation
            JOINT LeftToeEnd
            {
              OFFSET -0.009607 -1.647619 6.513017
              CHANNELS 3 Zrotation Yrotation Xrotation
            }
          }
        }
      }
    }
    JOINT RightLeg
    {
      OFFSET -10.047278 -8.29526 2.620317
      CHANNELS 3 Zrotation Yrotation Xrotation
      JOINT RightShin
      {
        OFFSET 1e-06 -43.362206 -0.805556
        CHANNELS 3 Zrotation Yrotation Xrotation
        JOINT RightFoot
        {
          OFFSET 2e-06 -42.117393 -3.478398
          CHANNELS 3 Zrotation Yrotation Xrotation
          JOINT RightToeBase
          {
            OFFSET -0.0 -5.079609 13.284196
            CHANNELS 3 Zrotation Yrotation Xrotation
            JOINT RightToeEnd
            {
              OFFSET 0.009532 -1.634378 6.460591
              CHANNELS 3 Zrotation Yrotation Xrotation
            }
          }
        }
      }
    }
  }
}
MOTION
Frames: 5
Frame Time: 0.03333333333333333
0.0 0.0 0.0 0.0 -0.0 0.0 -3.276322 114.728836 -7.671345 1.31487 -2.808186 3.95414 0.638995 0.439974 -3.031098 -0.141947 -0.149035 -5.922111 -0.324165 -1.626987 8.129059 -5.089496 5.331782 7.147406 0.537509 3.275598 -3.864692 0.191933 3.43216 -10.768174 7.7e-05 -2.2e-05 6e-06 0.019423 -0.063544 0.029977 0.674625 -3.812747 -10.7306 -0.63834 3.694756 -10.73064 -4.396047 -2.355189 14.169128 -27.667807 12.794696 -36.237473 -0.141999 -17.819717 -0.221084 15.953482 0.955238 -37.776577 -5.882106 9.861286 0.702592 -10.936872 -0.360573 7.156208 -0.0 8.774826 1e-06 -14.928333 19.320904 6.503689 -1.844033 2.498505 -2.507279 -10.163599 4.678946 4.621109 -20.976021 -4e-06 -1e-06 -21.226286 2.451695 -3.594003 -1e-06 -6e-06 -0.0 -1.362682 2.240799 -0.746325 -21.334909 0.584912 3.008324 -13.821214 -2e-06 1e-06 -23.887167 -0.249082 -0.839485 -59.161411 2.826785 -1.796111 -0.294025 1.679687 0.833257 -14.218208 0.093216 1.30058 -34.212048 -0.287563 0.967167 -20.033215 0.964537 1.212843 -0.0 -2e-06 -0.0 -3.440388 0.788233 0.501656 -15.928183 -3.167309 2.999707 -6.338826 -0.0 -1e-06 -18.123447 3.648183 -4.905672 -8e-06 2e-06 -1e-06 -1.68387 9.012803 13.1768 35.090546 -7.362321 -33.356964 -0.199928 27.880871 -0.200892 2.163858 -1.86694 -8.480762 2.243542 -5.255036 -3.180158 14.282889 -0.826597 6.952503 -0.0 -12.690605 4e-06 15.427151 -17.953377 3.165095 1.665665 -1.955921 -2.878299 4.727798 -4.170588 4.993926 11.020526 2e-06 -2e-06 12.109053 -3.735716 -2.866783 0.0 -1e-06 0.0 1.291985 -1.928549 -1.49809 14.800129 0.567465 3.865608 14.242571 -1.341736 -6.660657 19.631968 0.143926 -0.648246 49.631989 -0.907624 -6.053308 0.353028 -1.51115 -0.03194 20.222788 3.684307 2.316628 18.78727 2e-06 -2e-06 10.751628 -0.479871 1.397905 -0.0 -1e-06 0.0 3.273807 0.305946 -0.580111 21.486811 11.830372 2.266129 8.16293 -1e-06 -1e-06 18.399086 -3.798987 -4.940577 3e-06 -0.0 -1e-06 1.245256 3.985368 -5.107846 0.202703 -0.404669 8.584194 -15.718593 0.908618 28.851126 1.733804 -1.889485 -4.528903 0.0 0.0 2e-06 -3.925293 -3.914178 -3.98707 -0.263519 0.007977 7.809565 13.423464 -6.401175 27.241724 -1.436622 1.012371 -3.899072 -0.0 0.0 -3e-06 
0.0 0.0 0.0 0.0 -0.0 0.0 -3.615771 112.264977 -7.670436 0.845839 -2.858501 3.409306 1.10806 0.499755 -2.858119 -0.050501 -0.337176 -5.906988 -0.141194 -1.282767 8.550052 -5.762813 5.258372 7.068002 0.540331 3.229973 -3.737848 -0.127771 3.383476 -10.949572 7.7e-05 -2.3e-05 6e-06 0.016256 0.020427 0.065998 0.695615 -3.734909 -10.708714 -0.665381 3.77604 -10.719417 -5.372666 -2.520849 14.474322 -39.27121 7.967241 -31.84473 -0.603063 -18.223713 -0.007569 10.724454 -0.175437 -37.921059 -5.88211 9.86129 0.702591 -10.936873 -0.360573 7.156206 -3e-06 8.774829 -2e-06 -14.949056 19.691502 6.838967 -1.844033 2.498505 -2.507278 -10.163601 4.678948 4.621109 -20.976027 3e-06 1e-06 -21.22629 2.451702 -3.594007 1e-06 -6e-06 -1e-06 -1.362682 2.240799 -0.746323 -21.334921 0.584915 3.00832 -13.821219 2e-06 -1e-06 -23.88718 -0.249076 -0.839489 -59.94426 2.533857 -1.807974 -0.294025 1.679687 0.833256 -14.218212 0.093218 1.300581 -34.212055 -0.287554 0.967165 -20.033218 0.964539 1.212839 -0.0 -1e-06 1e-06 -3.440388 0.788234 0.501657 -15.928189 -3.167306 2.999707 -6.338828 2e-06 1e-06 -18.123449 3.648186 -4.905674 -3e-06 2e-06 -1e-06 0.942714 8.074739 14.429796 46.836819 -3.718985 -29.564495 -0.424392 29.080826 -0.322986 1.540271 -4.246418 -8.955411 2.243542 -5.255037 -3.180158 14.282895 -0.826595 6.952506 -1e-06 -12.690602 -0.0 15.667398 -17.919153 3.293562 1.665666 -1.955921 -2.878299 4.727802 -4.170587 4.993925 11.020528 2e-06 -0.0 12.109055 -3.735716 -2.866784 -0.0 -0.0 -0.0 1.291984 -1.928548 -1.49809 14.800132 0.567467 3.86561 14.242574 -1.341736 -6.660658 19.631969 0.143924 -0.648244 49.639748 -0.725889 -6.099726 0.35303 -1.511151 -0.031941 20.222795 3.684308 2.316632 18.787275 5e-06 1e-06 10.751631 -0.47987 1.397907 0.0 -1e-06 -0.0 3.273808 0.305946 -0.580111 21.486816 11.830373 2.266135 8.162928 -2e-06 0.0 18.399086 -3.798985 -4.940575 3e-06 -0.0 -1e-06 0.09856 3.0885 -5.031028 0.261975 -0.212612 10.185443 -16.891241 -0.452479 29.304134 1.690725 -1.857701 -5.265997 1e-06 -0.0 1e-06 -1.50247 -1.887002 -3.12 -0.31016 -0.142106 9.116082 11.367671 -5.759071 26.852324 -1.457232 1.01085 -5.46216 0.0 0.0 -3e-06 
0.0 0.0 0.0 0.0 -0.0 0.0 -3.997134 108.329407 -7.587935 0.463932 -2.78584 2.314696 1.464631 0.316276 -2.500987 -0.016465 -0.13319 -5.780561 0.296017 -1.167559 9.181967 -6.667156 5.285169 6.834263 0.890545 2.68062 -3.621022 -0.659353 3.723281 -11.143538 7.7e-05 -2.2e-05 6e-06 0.006856 0.063974 0.116519 0.713588 -3.688562 -10.645589 -0.703507 3.812653 -10.66257 -6.279351 -2.695739 14.91752 -50.342487 3.890456 -25.688873 -1.290528 -20.361723 0.1705 4.867086 -1.778898 -35.230957 -5.882109 9.861292 0.702589 -10.936873 -0.360575 7.156205 1e-06 8.77483 1e-06 -15.350895 19.505142 6.71017 -1.844034 2.498505 -2.507277 -10.163603 4.678948 4.621109 -20.976032 -6e-06 -0.0 -21.226297 2.451696 -3.594005 1e-06 -5e-06 -1e-06 -1.362684 2.240799 -0.746324 -21.334921 0.584909 3.00832 -13.821218 -4e-06 -0.0 -23.887182 -0.24908 -0.839485 -60.209476 2.201935 -1.54946 -0.294024 1.679688 0.833256 -14.218212 0.093216 1.300578 -34.212063 -0.287566 0.967167 -20.033222 0.964532 1.212842 1e-06 1e-06 0.0 -3.440391 0.788233 0.501654 -15.928189 -3.167313 2.999704 -6.338829 -0.0 -0.0 -18.123453 3.648184 -4.905675 -4e-06 1e-06 -2e-06 3.343807 6.899585 16.079185 57.768074 -0.396695 -26.302595 0.298505 30.417767 0.055491 0.284219 -5.952416 -12.262742 2.243541 -5.255037 -3.180157 14.282896 -0.826597 6.952503 -2e-06 -12.690609 3e-06 15.831475 -17.9303 3.390877 1.665667 -1.955921 -2.878299 4.727801 -4.17059 4.993925 11.02053 3e-06 -0.0 12.109056 -3.735716 -2.866785 -0.0 0.0 -0.0 1.291985 -1.928549 -1.498088 14.800132 0.567468 3.865606 14.242577 -1.341736 -6.660659 19.631973 0.143926 -0.648247 49.859051 -0.533803 -6.060531 0.353028 -1.511151 -0.031939 20.222801 3.684311 2.316628 18.787279 6e-06 -2e-06 10.751631 -0.479867 1.397906 -0.0 1e-06 1e-06 3.273808 0.305948 -0.580113 21.48682 11.830378 2.266129 8.162929 1e-06 -2e-06 18.399086 -3.798984 -4.940579 3e-06 -1e-06 -0.0 -0.669554 2.200725 -5.077971 0.263233 0.108546 14.946918 -13.678737 -1.992358 25.705135 1.761542 -1.804465 -10.752259 0.0 0.0 2e-06 0.44447 -1.322419 -1.984099 -0.228883 -0.323871 11.821533 5.145462 -5.013003 22.966164 -1.469359 0.85322 -14.09566 0.0 0.0 -1e-06 
0.0 0.0 0.0 0.0 -0.0 0.0 -4.292818 103.040527 -7.339437 0.314221 -2.689164 0.717124 1.571644 0.076868 -1.743334 0.022371 0.236882 -5.603389 0.69663 -1.239451 10.109296 -7.186625 5.427357 6.383412 1.031417 2.352298 -3.644168 -1.309503 3.438241 -12.266976 7.7e-05 -2.2e-05 6e-06 0.014339 0.075941 0.101852 0.725796 -3.663834 -10.625972 -0.703332 3.816828 -10.638772 -7.442878 -2.312792 15.432562 -60.417538 0.862332 -17.644278 -1.69927 -25.062796 0.290006 -1.287615 -2.370716 -31.673111 -5.882107 9.861288 0.702591 -10.936873 -0.360574 7.156208 1e-06 8.774828 -1e-06 -15.581391 19.053719 6.792737 -1.844033 2.498505 -2.507279 -10.163603 4.678946 4.621109 -20.976027 -5e-06 2e-06 -21.22629 2.451697 -3.593999 1e-06 -7e-06 -0.0 -1.362681 2.240798 -0.746324 -21.334917 0.584909 3.008322 -13.821217 -3e-06 3e-06 -23.887178 -0.249079 -0.839483 -60.676266 2.162427 -1.228999 -0.294025 1.679688 0.833256 -14.218213 0.093214 1.30058 -34.212059 -0.287566 0.967172 -20.03322 0.964536 1.212844 1e-06 0.0 1e-06 -3.44039 0.788233 0.501655 -15.928189 -3.167309 2.999707 -6.338829 -0.0 2e-06 -18.123451 3.648184 -4.905671 -3e-06 0.0 -3e-06 5.893831 6.044574 17.595135 67.876389 1.69174 -23.609316 1.781468 32.68903 0.701742 -0.87921 -6.504251 -20.510553 2.243541 -5.255039 -3.180159 14.282896 -0.826593 6.952506 -4e-06 -12.690611 1e-06 15.664639 -17.993147 3.344986 1.665667 -1.955922 -2.878301 4.727798 -4.170588 4.993926 11.020529 5e-06 -3e-06 12.109056 -3.735715 -2.866787 -1e-06 -0.0 -1e-06 1.291986 -1.928551 -1.49809 14.800132 0.567469 3.865609 14.242579 -1.341734 -6.660663 19.631973 0.143929 -0.648246 49.962746 -0.633013 -6.085631 0.353029 -1.51115 -0.031941 20.222799 3.684313 2.316631 18.787277 6e-06 -0.0 10.75163 -0.479869 1.397907 -1e-06 1e-06 1e-06 3.273808 0.305948 -0.580111 21.48682 11.830384 2.266133 8.162929 3e-06 -1e-06 18.399084 -3.798985 -4.940575 5e-06 -1e-06 -2e-06 -1.361853 2.274858 -5.170886 0.137996 0.360199 23.20755 -4.297469 -2.751287 7.130636 1.909766 -1.761232 -14.206899 0.0 0.0 1e-06 1.320505 -2.264092 -1.517992 -0.081782 -0.368123 18.511606 0.428064 -4.607692 4.70132 -1.457017 0.814892 -12.798611 -0.0 0.0 -1e-06 
0.0 0.0 0.0 0.0 -0.0 0.0 -4.534956 98.440384 -7.296285 0.032253 -2.90676 -0.43272 1.542528 0.18505 -1.087537 0.101899 0.203971 -5.434112 1.288764 -1.046869 11.455564 -7.21161 5.789979 4.862876 0.505879 1.559611 -3.716499 -1.76427 2.950196 -13.783593 7.7e-05 -2.3e-05 6e-06 0.041502 0.074954 0.072595 0.752798 -3.666349 -10.592711 -0.680612 3.818504 -10.602216 -8.281015 -1.323692 16.08177 -69.049583 -1.533835 -7.755419 -1.139693 -30.233656 0.338419 -6.452279 -2.257631 -27.195536 -5.882111 9.861291 0.702589 -10.93688 -0.360574 7.156209 1e-06 8.77483 0.0 -15.744887 18.31399 6.777647 -1.844034 2.498507 -2.507281 -10.163607 4.678947 4.62111 -20.97604 -3e-06 1e-06 -21.226301 2.451696 -3.594004 1e-06 -6e-06 0.0 -1.362683 2.240799 -0.746324 -21.33493 0.584911 3.008323 -13.821224 -2e-06 1e-06 -23.88719 -0.249081 -0.839486 -61.15274 2.083083 -1.038495 -0.294025 1.679688 0.833257 -14.218221 0.093216 1.300581 -34.212082 -0.287565 0.967167 -20.03323 0.964535 1.212843 1e-06 1e-06 0.0 -3.440391 0.788234 0.501655 -15.9282 -3.16731 2.999707 -6.338831 -1e-06 0.0 -18.123461 3.648183 -4.905674 -6e-06 -2e-06 -2e-06 7.716256 5.580748 17.889963 75.892136 2.240764 -17.880001 2.097489 35.116581 0.994519 -1.675435 -6.387745 -27.250591 2.243542 -5.255038 -3.180156 14.282894 -0.826595 6.952504 -2e-06 -12.690607 -2e-06 15.181364 -17.910313 3.201604 1.665667 -1.955923 -2.8783 4.7278 -4.170589 4.993921 11.020529 2e-06 -2e-06 12.109055 -3.735718 -2.866786 -0.0 0.0 0.0 1.291986 -1.92855 -1.49809 14.800134 0.567468 3.865608 14.242576 -1.341739 -6.66066 19.631973 0.143925 -0.648246 49.338348 -0.587858 -6.048228 0.35303 -1.511151 -0.031939 20.222797 3.684309 2.316631 18.787277 4e-06 -1e-06 10.751631 -0.479869 1.397905 -1e-06 1e-06 1e-06 3.273808 0.305946 -0.580111 21.48682 11.830378 2.266135 8.16293 -0.0 -1e-06 18.399088 -3.798985 -4.940577 3e-06 -0.0 -1e-06 -1.294282 3.232434 -6.112532 0.067077 0.442702 30.021851 0.511456 -2.096145 -11.266143 1.75052 -1.706725 -6.729712 -0.0 -0.0 2e-06 1.815079 -2.662498 -3.457618 -0.079927 -0.341074 26.675364 0.027557 -5.039707 -12.457349 -1.437113 0.869164 -4.498442 -0.0 0.0 -1e-06 
